<svg width="26" height="16" viewBox="0 0 26 16" fill="none" xmlns="http://www.w3.org/2000/svg">
<path d="M4.54693 1.45845C4.47994 1.56898 4.38783 1.73646 4.2706 1.96087C4.23375 2.06471 4.16844 2.21208 4.07465 2.403C4.05456 2.43315 4.02776 2.44822 3.99427 2.44822C3.99762 2.44822 3.83516 2.38961 3.50691 2.27237C3.18201 2.15179 2.91406 2.0915 2.70304 2.0915C2.08673 2.0915 1.77858 2.36281 1.77858 2.90543C1.77858 3.20688 1.99462 3.46982 2.4267 3.69423C3.15354 4.07272 3.55548 4.29044 3.63252 4.34738C4.0646 4.69238 4.28065 5.15796 4.28065 5.74412C4.28065 6.4944 3.98422 7.08559 3.39136 7.51767C2.85879 7.90621 2.20396 8.10048 1.42688 8.10048C1.06514 8.10048 0.870867 8.06029 0.844071 7.9799C0.830673 7.85262 0.800528 7.66673 0.753635 7.42221C0.726839 7.32173 0.68497 7.171 0.628029 6.97003C0.617981 6.93989 0.612956 6.91142 0.612956 6.88462C0.612956 6.83773 0.638078 6.81428 0.68832 6.81428C0.768708 6.81428 0.890964 6.82265 1.05509 6.8394C1.22256 6.85615 1.34817 6.86452 1.43191 6.86452C2.47025 6.86452 2.98942 6.52957 2.98942 5.85968C2.98942 5.53143 2.78008 5.24672 2.36139 5.00556C1.59771 4.57012 1.20749 4.34403 1.19074 4.32729C0.768708 3.98564 0.55769 3.52676 0.55769 2.95065C0.55769 2.32764 0.762009 1.82857 1.17065 1.45342C1.56924 1.09168 2.08506 0.910807 2.71811 0.910807C2.98607 0.910807 3.29422 0.95435 3.64257 1.04144C4.02106 1.13857 4.30577 1.2558 4.49669 1.39313C4.51344 1.40653 4.53018 1.4283 4.54693 1.45845ZM9.57116 5.30199C9.57116 5.54985 9.46398 5.71565 9.24961 5.79939C9.10559 5.85298 8.06892 5.95179 6.13961 6.09582C6.18316 6.39057 6.34561 6.64178 6.62696 6.84945C6.89492 7.04707 7.18298 7.14588 7.49113 7.14588C8.02035 7.14588 8.50603 6.97506 8.94816 6.63341C9.00175 6.58987 9.05534 6.54632 9.10893 6.50278C9.13573 6.50278 9.15248 6.50613 9.15918 6.51283C9.16923 6.51953 9.23287 6.63676 9.3501 6.86452C9.46733 7.08894 9.52595 7.20952 9.52595 7.22627C9.52595 7.24636 9.49915 7.28488 9.44556 7.34183C8.95318 7.86435 8.3218 8.12561 7.55142 8.12561C6.77434 8.12561 6.15469 7.89449 5.69246 7.43226C5.23023 6.96668 4.99911 6.34703 4.99911 5.5733C4.99911 4.8833 5.22018 4.28207 5.66231 3.7696C6.12789 3.23703 6.69898 2.97074 7.37557 2.97074C8.00528 2.97074 8.53115 3.20186 8.95318 3.66409C9.36517 4.11292 9.57116 4.65888 9.57116 5.30199ZM8.3754 4.99551C8.3754 4.7175 8.26486 4.47131 8.0438 4.25695C7.82608 4.04258 7.57989 3.9354 7.30524 3.9354C6.99708 3.9354 6.72242 4.05933 6.48126 4.30719C6.24345 4.55505 6.12454 4.83306 6.12454 5.14121C6.12454 5.21155 6.18483 5.24672 6.30541 5.24672C6.80114 5.24672 7.394 5.19648 8.08399 5.09599C8.27826 5.0692 8.3754 5.0357 8.3754 4.99551ZM11.5507 1.03139L11.5457 1.0967C11.472 2.34271 11.4352 3.41287 11.4352 4.30719C11.4352 4.70578 11.4419 5.30366 11.4553 6.10084C11.4686 6.89467 11.4753 7.4892 11.4753 7.88444C11.4753 7.96148 11.4486 8 11.395 8H10.4353C10.375 8 10.3449 7.96148 10.3449 7.88444C10.3449 7.4892 10.3482 6.89467 10.3549 6.10084C10.3616 5.30366 10.365 4.70578 10.365 4.30719C10.365 3.94544 10.3466 3.40283 10.3097 2.67934C10.2762 1.9525 10.2595 1.40988 10.2595 1.05149C10.2595 0.984495 10.2947 0.951001 10.365 0.951001C10.4253 0.951001 10.5157 0.956025 10.6363 0.966073C10.7569 0.976122 10.8473 0.981146 10.9076 0.981146C10.9713 0.981146 11.065 0.976122 11.189 0.966073C11.3129 0.956025 11.405 0.951001 11.4653 0.951001C11.5256 0.951001 11.5541 0.977796 11.5507 1.03139ZM13.8217 1.03139L13.8166 1.0967C13.743 2.34271 13.7061 3.41287 13.7061 4.30719C13.7061 4.70578 13.7128 5.30366 13.7262 6.10084C13.7396 6.89467 13.7463 7.4892 13.7463 7.88444C13.7463 7.96148 13.7195 8 13.6659 8H12.7063C12.646 8 12.6158 7.96148 12.6158 7.88444C12.6158 7.4892 12.6192 6.89467 12.6259 6.10084C12.6326 5.30366 12.6359 4.70578 12.6359 4.30719C12.6359 3.94544 12.6175 3.40283 12.5807 2.67934C12.5472 1.9525 12.5304 1.40988 12.5304 1.05149C12.5304 0.984495 12.5656 0.951001 12.6359 0.951001C12.6962 0.951001 12.7867 0.956025 12.9073 0.966073C13.0278 0.976122 13.1183 0.981146 13.1786 0.981146C13.2422 0.981146 13.336 0.976122 13.4599 0.966073C13.5839 0.956025 13.676 0.951001 13.7363 0.951001C13.7965 0.951001 13.825 0.977796 13.8217 1.03139ZM16.1278 1.99102C16.1278 2.403 15.8983 2.609 15.4395 2.609C14.9739 2.609 14.7411 2.403 14.7411 1.99102C14.7411 1.8068 14.8131 1.65439 14.9571 1.53381C15.0911 1.41993 15.2519 1.36299 15.4395 1.36299C15.627 1.36299 15.7878 1.4216 15.9218 1.53884C16.0591 1.65607 16.1278 1.8068 16.1278 1.99102ZM16.0926 3.35258C16.0926 3.61049 16.0759 4.00071 16.0424 4.52323C16.0122 5.0424 15.9972 5.43262 15.9972 5.69388C15.9972 5.93839 16.0022 6.30516 16.0122 6.79418C16.0223 7.27986 16.0273 7.64328 16.0273 7.88444C16.0273 7.95478 15.9972 7.98995 15.9369 7.98995H14.9571C14.8868 7.98995 14.8516 7.92129 14.8516 7.78396C14.8516 7.55284 14.8567 7.20617 14.8667 6.74394C14.8801 6.27836 14.8868 5.92834 14.8868 5.69388C14.8868 5.43262 14.8667 5.04073 14.8265 4.51821C14.7897 3.99569 14.7712 3.6038 14.7712 3.34254C14.7712 3.28559 14.8064 3.25712 14.8768 3.25712C14.937 3.25712 15.0292 3.2655 15.1531 3.28224C15.2804 3.29899 15.3758 3.30737 15.4395 3.30737C15.5031 3.30737 15.5969 3.29899 15.7208 3.28224C15.8481 3.2655 15.9436 3.25712 16.0072 3.25712C16.0641 3.25712 16.0926 3.28894 16.0926 3.35258ZM21.348 5.30199C21.348 5.54985 21.2408 5.71565 21.0264 5.79939C20.8824 5.85298 19.8457 5.95179 17.9164 6.09582C17.96 6.39057 18.1224 6.64178 18.4038 6.84945C18.6717 7.04707 18.9598 7.14588 19.2679 7.14588C19.7972 7.14588 20.2828 6.97506 20.725 6.63341C20.7786 6.58987 20.8321 6.54632 20.8857 6.50278C20.9125 6.50278 20.9293 6.50613 20.936 6.51283C20.946 6.51953 21.0097 6.63676 21.1269 6.86452C21.2441 7.08894 21.3027 7.20952 21.3027 7.22627C21.3027 7.24636 21.276 7.28488 21.2224 7.34183C20.73 7.86435 20.0986 8.12561 19.3282 8.12561C18.5511 8.12561 17.9315 7.89449 17.4693 7.43226C17.007 6.96668 16.7759 6.34703 16.7759 5.5733C16.7759 4.8833 16.997 4.28207 17.4391 3.7696C17.9047 3.23703 18.4758 2.97074 19.1524 2.97074C19.7821 2.97074 20.308 3.20186 20.73 3.66409C21.142 4.11292 21.348 4.65888 21.348 5.30199ZM20.1522 4.99551C20.1522 4.7175 20.0417 4.47131 19.8206 4.25695C19.6029 4.04258 19.3567 3.9354 19.082 3.9354C18.7739 3.9354 18.4992 4.05933 18.2581 4.30719C18.0202 4.55505 17.9013 4.83306 17.9013 5.14121C17.9013 5.21155 17.9616 5.24672 18.0822 5.24672C18.5779 5.24672 19.1708 5.19648 19.8608 5.09599C20.0551 5.0692 20.1522 5.0357 20.1522 4.99551ZM4.01939 10.443C4.01939 10.5167 3.98087 10.6808 3.90383 10.9354C3.82679 11.19 3.7732 11.3172 3.74305 11.3172C3.59233 11.2502 3.43993 11.1833 3.28585 11.1163C3.13512 11.0493 2.96932 11.0158 2.78845 11.0158C2.37646 11.0158 2.03314 11.1682 1.75848 11.473C1.48382 11.7778 1.34649 12.1379 1.34649 12.5532C1.34649 12.9618 1.48382 13.3152 1.75848 13.6133C2.03984 13.9215 2.38316 14.0755 2.78845 14.0755C3.01287 14.0755 3.23393 14.0203 3.45165 13.9097C3.66937 13.7992 3.76483 13.7439 3.73803 13.7439C3.78157 13.7439 3.83014 13.8846 3.88373 14.166C3.93397 14.4205 3.9591 14.5964 3.9591 14.6935C3.9591 14.7974 3.76315 14.8995 3.37126 15C3.04301 15.0837 2.80017 15.1256 2.64275 15.1256C1.95275 15.1256 1.36994 14.8677 0.894314 14.3519C0.428735 13.8495 0.195945 13.2499 0.195945 12.5532C0.195945 11.8431 0.42371 11.2402 0.879241 10.7445C1.34817 10.2354 1.93266 9.98079 2.6327 9.98079C3.10163 9.98079 3.53036 10.0997 3.9189 10.3375C3.98589 10.3777 4.01939 10.4129 4.01939 10.443ZM9.2044 12.5532C9.2044 13.2532 8.97496 13.8511 8.51608 14.3468C8.04715 14.8593 7.46601 15.1156 6.77267 15.1156C6.07597 15.1156 5.49316 14.861 5.02423 14.3519C4.56535 13.8595 4.33591 13.2633 4.33591 12.5632C4.33591 11.8632 4.56535 11.267 5.02423 10.7746C5.49651 10.2722 6.07932 10.021 6.77267 10.021C7.46266 10.021 8.04212 10.2722 8.51105 10.7746C8.97328 11.2636 9.2044 11.8565 9.2044 12.5532ZM8.14428 12.5632C8.14428 12.1546 8.01868 11.8063 7.76746 11.5182C7.5062 11.2134 7.17461 11.061 6.77267 11.061C6.37073 11.061 6.03745 11.2117 5.77284 11.5132C5.52163 11.8046 5.39603 12.1546 5.39603 12.5632C5.39603 12.9652 5.52331 13.3135 5.77787 13.6083C6.04583 13.9198 6.37743 14.0755 6.77267 14.0755C7.17126 14.0755 7.50286 13.9198 7.76746 13.6083C8.01868 13.3135 8.14428 12.9652 8.14428 12.5632ZM12.5103 8.55893C12.5103 8.59913 12.4802 8.62257 12.4199 8.62927C12.2558 8.64602 12.0933 8.66109 11.9326 8.67449C11.7416 8.70129 11.5959 8.76828 11.4954 8.87546C11.3313 9.05298 11.2493 9.50349 11.2493 10.227C11.3598 10.227 11.534 10.2303 11.7718 10.237C12.0096 10.2437 12.1888 10.2471 12.3094 10.2471C12.3898 10.2471 12.43 10.2772 12.43 10.3375C12.43 10.4313 12.4333 10.572 12.44 10.7595C12.4467 10.9438 12.4501 11.0811 12.4501 11.1715C12.4501 11.2352 12.4166 11.267 12.3496 11.267C12.2323 11.267 12.0548 11.262 11.817 11.2519C11.5792 11.2385 11.4033 11.2318 11.2895 11.2318V12.7341C11.2895 12.9685 11.2978 13.3236 11.3146 13.7992C11.3313 14.2748 11.3397 14.6299 11.3397 14.8643C11.3397 14.9548 11.3062 15 11.2392 15H10.3198C10.2327 15 10.1891 14.9481 10.1891 14.8442V11.3876C10.1891 11.2971 10.087 11.2536 9.88267 11.2569C9.6616 11.2603 9.54437 11.2519 9.53097 11.2318C9.52092 11.2218 9.5159 11.1598 9.5159 11.0459C9.5159 10.9722 9.51255 10.8634 9.50585 10.7194C9.49915 10.572 9.4958 10.4614 9.4958 10.3878C9.4958 10.3174 9.70849 10.2705 10.1339 10.2471C10.1238 10.0327 10.1188 9.85853 10.1188 9.72455C10.1188 9.1317 10.2243 8.69794 10.4353 8.42328C10.6229 8.17542 10.8976 7.98115 11.2593 7.84047C11.5842 7.71319 11.9208 7.64955 12.2692 7.64955C12.3027 7.64955 12.3261 7.66797 12.3395 7.70481C12.3429 7.71151 12.3713 7.85387 12.4249 8.13187C12.4819 8.40653 12.5103 8.54888 12.5103 8.55893ZM15.5349 8.55893C15.5349 8.59913 15.5048 8.62257 15.4445 8.62927C15.2804 8.64602 15.1179 8.66109 14.9571 8.67449C14.7662 8.70129 14.6205 8.76828 14.52 8.87546C14.3559 9.05298 14.2738 9.50349 14.2738 10.227C14.3844 10.227 14.5586 10.2303 14.7964 10.237C15.0342 10.2437 15.2134 10.2471 15.334 10.2471C15.4143 10.2471 15.4545 10.2772 15.4545 10.3375C15.4545 10.4313 15.4579 10.572 15.4646 10.7595C15.4713 10.9438 15.4746 11.0811 15.4746 11.1715C15.4746 11.2352 15.4411 11.267 15.3742 11.267C15.2569 11.267 15.0794 11.262 14.8416 11.2519C14.6038 11.2385 14.4279 11.2318 14.314 11.2318V12.7341C14.314 12.9685 14.3224 13.3236 14.3392 13.7992C14.3559 14.2748 14.3643 14.6299 14.3643 14.8643C14.3643 14.9548 14.3308 15 14.2638 15H13.3444C13.2573 15 13.2137 14.9481 13.2137 14.8442V11.3876C13.2137 11.2971 13.1116 11.2536 12.9073 11.2569C12.6862 11.2603 12.569 11.2519 12.5556 11.2318C12.5455 11.2218 12.5405 11.1598 12.5405 11.0459C12.5405 10.9722 12.5371 10.8634 12.5304 10.7194C12.5237 10.572 12.5204 10.4614 12.5204 10.3878C12.5204 10.3174 12.7331 10.2705 13.1585 10.2471C13.1484 10.0327 13.1434 9.85853 13.1434 9.72455C13.1434 9.1317 13.2489 8.69794 13.4599 8.42328C13.6475 8.17542 13.9222 7.98115 14.2839 7.84047C14.6088 7.71319 14.9454 7.64955 15.2938 7.64955C15.3273 7.64955 15.3507 7.66797 15.3641 7.70481C15.3675 7.71151 15.3959 7.85387 15.4495 8.13187C15.5065 8.40653 15.5349 8.54888 15.5349 8.55893ZM20.2225 12.302C20.2225 12.5498 20.1154 12.7156 19.901 12.7994C19.757 12.853 18.7203 12.9518 16.791 13.0958C16.8345 13.3906 16.997 13.6418 17.2783 13.8495C17.5463 14.0471 17.8344 14.1459 18.1425 14.1459C18.6717 14.1459 19.1574 13.9751 19.5995 13.6334C19.6531 13.5899 19.7067 13.5463 19.7603 13.5028C19.7871 13.5028 19.8039 13.5061 19.8106 13.5128C19.8206 13.5195 19.8842 13.6368 20.0015 13.8645C20.1187 14.0889 20.1773 14.2095 20.1773 14.2263C20.1773 14.2464 20.1505 14.2849 20.0969 14.3418C19.6046 14.8643 18.9732 15.1256 18.2028 15.1256C17.4257 15.1256 16.8061 14.8945 16.3438 14.4323C15.8816 13.9667 15.6505 13.347 15.6505 12.5733C15.6505 11.8833 15.8716 11.2821 16.3137 10.7696C16.7793 10.237 17.3504 9.97074 18.0269 9.97074C18.6567 9.97074 19.1825 10.2019 19.6046 10.6641C20.0165 11.1129 20.2225 11.6589 20.2225 12.302ZM19.0268 11.9955C19.0268 11.7175 18.9162 11.4713 18.6952 11.2569C18.4775 11.0426 18.2313 10.9354 17.9566 10.9354C17.6485 10.9354 17.3738 11.0593 17.1326 11.3072C16.8948 11.5551 16.7759 11.8331 16.7759 12.1412C16.7759 12.2116 16.8362 12.2467 16.9568 12.2467C17.4525 12.2467 18.0454 12.1965 18.7354 12.096C18.9296 12.0692 19.0268 12.0357 19.0268 11.9955ZM25.1865 12.302C25.1865 12.5498 25.0793 12.7156 24.8649 12.7994C24.7209 12.853 23.6842 12.9518 21.7549 13.0958C21.7985 13.3906 21.9609 13.6418 22.2423 13.8495C22.5102 14.0471 22.7983 14.1459 23.1064 14.1459C23.6357 14.1459 24.1213 13.9751 24.5635 13.6334C24.6171 13.5899 24.6707 13.5463 24.7243 13.5028C24.751 13.5028 24.7678 13.5061 24.7745 13.5128C24.7845 13.5195 24.8482 13.6368 24.9654 13.8645C25.0826 14.0889 25.1413 14.2095 25.1413 14.2263C25.1413 14.2464 25.1145 14.2849 25.0609 14.3418C24.5685 14.8643 23.9371 15.1256 23.1667 15.1256C22.3897 15.1256 21.77 14.8945 21.3078 14.4323C20.8455 13.9667 20.6144 13.347 20.6144 12.5733C20.6144 11.8833 20.8355 11.2821 21.2776 10.7696C21.7432 10.237 22.3143 9.97074 22.9909 9.97074C23.6206 9.97074 24.1465 10.2019 24.5685 10.6641C24.9805 11.1129 25.1865 11.6589 25.1865 12.302ZM23.9907 11.9955C23.9907 11.7175 23.8802 11.4713 23.6591 11.2569C23.4414 11.0426 23.1952 10.9354 22.9206 10.9354C22.6124 10.9354 22.3377 11.0593 22.0966 11.3072C21.8588 11.5551 21.7399 11.8331 21.7399 12.1412C21.7399 12.2116 21.8001 12.2467 21.9207 12.2467C22.4165 12.2467 23.0093 12.1965 23.6993 12.096C23.8936 12.0692 23.9907 12.0357 23.9907 11.9955Z" fill="white"/>
</svg>
